<svg enable-background="new 0 0 512 512" height="512" viewBox="0 0 512 512" width="512" xmlns="http://www.w3.org/2000/svg"><g id="_x32_5_Location"><g><g><path d="m458.025 208.376c0 93.448-141.582 244.551-187.689 291.363-7.934 7.936-20.805 7.936-28.74 0-46.107-46.812-187.6-197.915-187.6-291.363 0-111.609 90.451-202.059 201.97-202.059 111.608 0 202.059 90.451 202.059 202.059z" fill="#246abf"/><path d="m75.597 230.018c0 83.194 112.2 212.075 169.362 272.424-1.222-.744-2.337-1.647-3.347-2.709-46.112-46.803-187.637-197.89-187.637-291.337 0-111.615 90.472-202.087 201.981-202.087 61.306 0 116.237 27.306 153.265 70.444-35.381-30.44-81.334-48.821-131.643-48.821-111.509 0-201.981 90.471-201.981 202.086z" opacity=".1"/><path d="m350.599 208.376c0 52.259-42.352 94.61-94.61 94.61-52.217 0-94.568-42.352-94.568-94.61s42.352-94.61 94.568-94.61c52.259 0 94.61 42.352 94.61 94.61z" fill="#fff"/></g></g></g></svg>